<?xml version="1.0" encoding="iso-8859-1"?>
<!-- Generator: Adobe Illustrator 19.0.0, SVG Export Plug-In . SVG Version: 6.00 Build 0)  -->
<svg version="1.1" id="Layer_1" xmlns="http://www.w3.org/2000/svg" xmlns:xlink="http://www.w3.org/1999/xlink" x="0px" y="0px"
	 viewBox="0 0 1200 222" style="enable-background:new 0 0 1200 222;" xml:space="preserve">
<polygon id="XMLID_391_" style="fill:#1b1b1b;" points="0,222.301 0,161.815 5.823,161.815 5.823,144.34 41.401,144.34
	41.401,129.454 63.396,129.454 63.396,146.282 75.688,146.282 75.688,129.454 88.625,129.454 88.625,92.561 94.447,92.561
	94.447,84.147 108.679,84.147 108.679,92.561 114.501,92.561 114.501,124.922 119.678,124.922 119.678,152.431 131.322,152.431
	131.322,102.917 139.085,102.917 139.085,64.729 144.259,64.729 144.259,40.134 148.14,40.134 148.14,21.364 152.022,21.364
	152.022,1.301 157.843,1.301 157.843,20.717 162.373,20.717 162.373,36.251 166.254,36.251 166.254,66.024 171.428,66.024
	171.428,104.859 177.25,104.859 177.25,160.522 186.953,160.522 186.953,147.577 207.656,147.577 207.656,154.049 215.418,154.049
	215.418,108.742 221.24,108.742 221.24,92.561 239.354,92.561 239.354,108.095 243.396,112.14 243.396,138.516 250.35,138.516
	250.35,130.101 268.464,130.101 268.464,139.162 279.463,139.162 279.463,147.577 291.107,147.577 291.107,135.925 299.517,135.925
	299.517,111.008 346.741,111.008 346.741,135.925 355.148,135.925 355.148,111.008 395.257,111.008 395.257,121.039
	406.253,121.039 406.253,157.932 421.781,157.932 421.781,126.217 474.179,126.217 474.179,143.046 481.941,143.046
	481.941,164.404 487.115,164.404 487.115,177.349 509.758,177.349 509.758,138.516 531.753,138.516 531.753,151.461
	539.516,151.461 539.516,138.516 565.392,138.516 565.392,161.815 570.566,161.815 570.566,177.349 582.858,177.349
	582.858,150.812 610.675,150.812 610.675,144.34 616.497,144.34 616.497,136.574 622.319,136.574 622.319,143.046 628.789,143.046
	628.789,135.279 643.666,135.279 643.666,142.399 650.136,142.399 650.136,163.11 662.428,163.11 662.428,134.632 687.008,134.632
	687.008,143.046 697.36,143.046 697.36,107.447 705.122,93.209 705.122,77.674 708.355,77.674 708.355,93.856 717.414,106.8
	717.414,163.11 728.41,163.11 728.41,56.316 761.404,56.316 761.404,155.344 767.871,155.344 767.871,138.516 782.103,138.516
	782.103,148.87 811.861,148.87 811.861,161.815 835.149,161.815 835.149,141.75 847.441,141.75 847.441,153.402 856.496,153.402
	856.496,146.282 869.436,146.282 869.436,137.867 884.961,137.867 884.961,159.874 896.605,159.874 896.605,117.156 904.367,106.8
	915.366,117.804 915.366,137.22 928.303,137.22 928.303,154.695 944.476,154.695 944.476,135.279 955.472,135.279 955.472,126.864
	970.353,126.864 970.353,132.69 980.704,132.69 980.704,123.629 1018.869,123.629 1018.869,154.049 1022.102,154.049
	1022.102,147.577 1036.983,147.577 1036.983,184.469 1047.978,184.469 1047.978,172.172 1052.508,172.172 1052.508,133.337
	1067.388,133.337 1067.388,188.352 1075.151,188.352 1075.151,199.355 1090.676,199.355 1090.676,190.294 1123.022,190.294
	1123.022,128.807 1148.251,128.807 1148.251,191.589 1200,191.589 1200,222.301 "/>
</svg>
